<svg width="225" height="218" viewBox="0 0 225 218" fill="none" xmlns="http://www.w3.org/2000/svg">
<path d="M1.01351 161.809V159.901C1.35135 159.901 1.68918 159.901 1.8581 159.728C2.19594 159.728 2.36486 159.554 2.53378 159.381C2.7027 159.208 2.87162 159.034 2.87162 158.687C3.04054 158.34 3.04054 157.82 3.04054 157.3V146.027C3.04054 145.68 3.04054 145.507 3.04054 145.16C3.04054 144.986 3.04054 144.64 3.04054 144.466C3.04054 144.293 3.04054 143.946 3.04054 143.772C3.04054 143.599 3.04054 143.426 3.04054 143.252H0.844589V140.998H8.9527V142.905C8.61486 142.905 8.27702 142.905 8.1081 143.079C7.93919 143.079 7.60135 143.252 7.43243 143.426C7.26351 143.599 7.09459 143.772 7.09459 144.119C6.92567 144.466 6.92567 144.986 6.92567 145.507V156.78C6.92567 157.126 6.92567 157.3 6.92567 157.473C6.92567 157.647 6.92567 157.994 6.92567 158.167C6.92567 158.34 6.92567 158.687 6.92567 158.861C6.92567 159.034 6.92567 159.208 6.92567 159.381H10.8108C11.9932 159.381 12.8378 159.034 13.5135 158.167C14.1892 157.3 14.527 156.086 14.527 154.525H16.3851L16.2162 161.462H1.01351V161.809Z" fill="white"/>
<path d="M25.8446 152.27V157.126C25.8446 157.473 25.8446 157.647 25.8446 157.993C25.8446 158.167 25.8446 158.514 25.8446 158.687C25.8446 158.861 25.8446 159.207 25.8446 159.381C25.8446 159.554 25.8446 159.728 25.8446 159.901H29.7297C30.0676 159.901 30.5743 159.901 30.9122 159.728C31.25 159.554 31.7568 159.381 32.0946 159.034C32.4324 158.687 32.6014 158.34 32.9392 157.647C33.1081 157.126 33.277 156.433 33.277 155.565H35.1351L34.9662 161.982H19.9324V160.075C20.2703 160.075 20.6081 160.075 20.777 159.901C21.1149 159.901 21.2838 159.728 21.4527 159.554C21.6216 159.381 21.7905 159.207 21.7905 158.861C21.9595 158.514 21.9595 157.993 21.9595 157.473V146.2C21.9595 145.853 21.9595 145.68 21.9595 145.333C21.9595 145.16 21.9595 144.813 21.9595 144.639C21.9595 144.466 21.9595 144.119 21.9595 143.946C21.9595 143.772 21.9595 143.599 21.9595 143.425H19.7635V141.171H33.9527L34.1216 146.894H32.2635C32.2635 146.027 32.0946 145.507 31.9257 144.986C31.7568 144.466 31.4189 144.119 31.0811 143.772C30.7433 143.425 30.4054 143.252 29.8987 143.252C29.5608 143.079 29.0541 143.079 28.7162 143.079H27.7027C27.3649 143.079 27.196 143.079 26.8581 143.252C26.6892 143.252 26.3514 143.425 26.1824 143.599C26.0135 143.772 25.8446 143.946 25.8446 144.293C25.6757 144.639 25.6757 145.16 25.6757 145.68V150.016H29.0541L28.8851 147.414H31.0811V154.525H29.223C29.223 153.831 29.223 153.484 29.0541 153.137C28.8851 152.791 28.7162 152.444 28.3784 152.27C28.2095 152.097 27.8716 151.923 27.5338 151.923C27.196 151.923 26.8581 151.923 26.5203 151.923L25.8446 152.27Z" fill="white"/>
<path d="M46.2838 160.075C46.7905 160.075 47.2973 160.075 47.6351 159.901C47.973 159.728 48.4797 159.555 48.6487 159.381C48.9865 159.208 49.1554 158.861 49.3243 158.514C49.4932 158.167 49.4932 157.82 49.4932 157.473C49.4932 156.953 49.3243 156.433 49.1554 156.086C48.8176 155.739 48.4797 155.392 48.1419 155.045C47.6351 154.699 47.1284 154.525 46.6216 154.352C46.1149 154.178 45.6081 153.831 44.9324 153.658C44.0878 153.311 43.2433 152.791 42.3987 152.444C41.5541 151.924 40.8784 151.577 40.3716 150.883C39.8649 150.363 39.3581 149.669 39.0203 148.975C38.6824 148.282 38.5135 147.415 38.5135 146.374C38.5135 146.027 38.5135 145.507 38.6824 145.16C38.8514 144.813 38.8514 144.293 39.1892 143.946C39.3581 143.599 39.696 143.079 40.0338 142.732C40.3716 142.385 40.8784 142.038 41.2162 141.691C41.723 141.344 42.2297 141.171 42.9054 140.998C43.5811 140.824 44.2568 140.824 45.1014 140.824C45.4392 140.824 45.946 140.824 46.2838 140.998C46.7905 140.998 47.1284 141.171 47.6351 141.344C48.1419 141.518 48.4797 141.518 48.8176 141.865C49.1554 142.038 49.4932 142.212 49.8311 142.558L49.6622 141.344H51.8581V148.108H50C49.6622 146.374 49.1554 145.16 48.3108 144.466C47.4662 143.599 46.4527 143.252 45.1014 143.252C44.7635 143.252 44.2568 143.252 43.9189 143.426C43.5811 143.599 43.2432 143.773 42.9054 143.946C42.5676 144.119 42.3987 144.466 42.2297 144.813C42.0608 145.16 42.0608 145.507 42.0608 145.854C42.0608 146.374 42.2297 146.721 42.3987 147.068C42.5676 147.415 42.9054 147.761 43.2433 148.108C43.5811 148.455 44.0878 148.802 44.5946 148.975C45.1014 149.322 45.777 149.496 46.6216 149.843C47.1284 150.016 47.6351 150.189 48.1419 150.536C48.6487 150.71 49.1554 151.057 49.6622 151.403C50.1689 151.75 50.6757 152.097 51.0135 152.444C51.5203 152.791 51.8581 153.138 52.196 153.658C52.5338 154.178 52.7027 154.525 53.0405 155.045C53.2095 155.566 53.3784 156.086 53.3784 156.78C53.3784 157.647 53.2095 158.514 52.8716 159.208C52.5338 159.901 52.027 160.595 51.3514 161.115C50.6757 161.636 50 161.983 48.9865 162.329C48.1419 162.676 47.1284 162.85 45.946 162.85C45.6081 162.85 45.1014 162.85 44.7635 162.676C44.4257 162.676 43.9189 162.503 43.4122 162.329C42.9054 162.156 42.5676 161.983 42.0608 161.809C41.5541 161.636 41.2162 161.462 40.8784 161.115L41.0473 162.329H38.8514V155.566H40.7095C40.8784 156.433 41.0473 157.127 41.3851 157.647C41.723 158.341 42.0608 158.861 42.5676 159.208C43.0743 159.555 43.5811 159.901 44.0878 160.075C44.9324 160.075 45.6081 160.075 46.2838 160.075ZM44.4257 139.263L43.4122 137.876L46.6216 134.407C46.7905 134.234 47.1284 134.06 47.2973 133.887C47.6351 133.714 47.8041 133.714 48.1419 133.714C48.3108 133.714 48.4797 133.714 48.6487 133.887C48.8176 133.887 48.9865 134.06 49.1554 134.234C49.3243 134.407 49.3243 134.581 49.4932 134.754C49.6622 134.928 49.6622 135.101 49.6622 135.274C49.6622 135.621 49.4932 135.968 49.3243 136.315C49.1554 136.662 48.8176 136.835 48.4797 137.009L44.4257 139.263Z" fill="white"/>
<path d="M73.9865 162.156H71.6216L62.5 150.189C61.9932 149.496 61.4865 148.802 60.9797 147.935V156.953C60.9797 157.3 60.9797 157.473 60.9797 157.82C60.9797 157.994 60.9797 158.341 60.9797 158.514C60.9797 158.687 60.9797 159.034 60.9797 159.208C60.9797 159.381 60.9797 159.555 60.9797 159.728H63.1757V161.983H56.7568V160.075C57.0946 160.075 57.4324 160.075 57.6013 159.901C57.9392 159.901 58.1081 159.728 58.277 159.555C58.4459 159.381 58.6149 159.208 58.6149 158.861C58.7838 158.514 58.7838 157.994 58.7838 157.473V146.201C58.7838 145.854 58.7838 145.68 58.7838 145.333C58.7838 145.16 58.7838 144.813 58.7838 144.64C58.7838 144.466 58.7838 144.119 58.7838 143.946C58.7838 143.773 58.7838 143.599 58.7838 143.426H56.5878V141.171H60.8108L69.5946 152.444C70.1014 153.138 70.4392 153.658 70.777 154.005C71.1149 154.525 71.2838 154.872 71.6216 155.219V145.854C71.6216 145.507 71.6216 145.333 71.6216 144.987C71.6216 144.64 71.6216 144.466 71.6216 144.293C71.6216 144.119 71.6216 143.773 71.6216 143.599C71.6216 143.426 71.6216 143.252 71.6216 143.079H69.4257V140.824H76.0135V142.732C75.6757 142.732 75.3378 142.732 75.1689 142.905C75 142.905 74.6622 143.079 74.4932 143.252C74.3243 143.426 74.1554 143.599 74.1554 143.946C73.9865 144.293 73.9865 144.813 73.9865 145.333V162.156Z" fill="white"/>
<path d="M85.9797 156.953C85.9797 157.3 85.9797 157.473 85.9797 157.82C85.9797 157.993 85.9797 158.34 85.9797 158.514C85.9797 158.687 85.9797 159.034 85.9797 159.207C85.9797 159.381 85.9797 159.554 85.9797 159.728H88.1757V161.982H80.0676V160.075C80.4054 160.075 80.7432 160.075 80.9122 159.901C81.25 159.901 81.4189 159.728 81.5878 159.554C81.7568 159.381 81.9257 159.207 81.9257 158.861C81.9257 158.514 82.0946 157.993 82.0946 157.473V146.2C82.0946 145.853 82.0946 145.68 82.0946 145.333C82.0946 145.16 82.0946 144.813 82.0946 144.639C82.0946 144.466 82.0946 144.119 82.0946 143.946C82.0946 143.772 82.0946 143.599 82.0946 143.425H79.8986V141.171H88.0068V143.079C87.6689 143.079 87.3311 143.079 87.1622 143.252C86.9932 143.252 86.6554 143.425 86.4865 143.599C86.3176 143.772 86.1486 143.946 86.1486 144.293C85.9797 144.639 85.9797 145.16 85.9797 145.68V156.953Z" fill="white"/>
<path d="M96.1149 151.23C96.1149 152.444 96.2838 153.658 96.4527 154.698C96.7905 155.739 97.1284 156.606 97.6351 157.473C98.1419 158.167 98.8176 158.861 99.4932 159.208C100.169 159.554 101.014 159.901 102.027 159.901C102.703 159.901 103.209 159.901 103.885 159.728C104.561 159.554 105.068 159.381 105.574 159.034C106.081 158.687 106.757 158.34 107.264 157.82C107.77 157.3 108.277 156.953 108.615 156.259L109.966 157.473C109.291 158.514 108.615 159.208 107.77 159.901C106.926 160.595 106.25 160.942 105.574 161.289C104.899 161.636 104.054 161.809 103.378 161.982C102.703 162.156 102.027 162.156 101.52 162.156C100 162.156 98.6486 161.809 97.4662 161.289C96.2838 160.768 95.2703 160.075 94.4257 159.034C93.5811 157.994 92.9054 156.953 92.3986 155.739C91.8919 154.525 91.723 153.138 91.723 151.577C91.723 150.71 91.8919 149.842 92.0608 148.975C92.2297 148.108 92.5676 147.241 92.9054 146.374C93.2432 145.507 93.75 144.813 94.2568 144.119C94.7635 143.426 95.4392 142.732 96.1149 142.212C96.7905 141.691 97.6351 141.344 98.6487 140.998C99.4932 140.651 100.507 140.477 101.689 140.477C102.027 140.477 102.534 140.477 102.872 140.651C103.209 140.651 103.716 140.824 104.054 140.998C104.561 141.171 104.899 141.344 105.236 141.518C105.574 141.691 106.081 141.865 106.419 142.212V140.998H108.615V147.761H106.757C106.419 146.2 105.912 144.986 105.236 144.119C104.392 143.252 103.378 142.905 102.027 142.905C101.014 142.905 100.169 143.079 99.4932 143.599C98.8176 144.119 98.1419 144.64 97.6351 145.507C97.1284 146.2 96.7905 147.241 96.6216 148.108C96.1149 149.149 96.1149 150.189 96.1149 151.23Z" fill="white"/>
<path d="M119.426 156.259C119.088 156.953 118.581 157.473 118.243 157.994C117.905 158.514 117.399 159.208 117.061 159.554L122.297 159.728C122.804 159.728 123.311 159.728 123.818 159.554C124.324 159.381 124.662 159.208 125 158.861C125.338 158.514 125.507 157.994 125.676 157.473C125.845 156.953 126.014 156.259 126.014 155.392H127.872L127.703 161.636H113.007V159.554L121.453 146.2C121.791 145.68 122.128 145.16 122.466 144.64C122.804 144.119 123.142 143.772 123.48 143.252L118.581 143.079C118.074 143.079 117.568 143.079 117.061 143.252C116.554 143.426 116.216 143.599 115.878 143.946C115.541 144.293 115.372 144.813 115.203 145.333C114.865 146.027 114.865 146.721 114.865 147.588H113.007L113.176 141.344H127.703V143.599L119.426 156.259Z" fill="white"/>
<path d="M131.25 151.577C131.25 150.71 131.419 149.843 131.588 149.149C131.757 148.282 132.095 147.414 132.432 146.721C132.77 145.854 133.277 145.16 133.784 144.466C134.291 143.773 134.966 143.079 135.642 142.558C136.318 142.038 137.162 141.691 138.176 141.344C139.189 140.998 140.203 140.824 141.216 140.824C142.399 140.824 143.412 140.998 144.426 141.344C145.439 141.691 146.284 142.038 146.959 142.558C147.635 143.079 148.311 143.773 148.818 144.466C149.324 145.16 149.831 145.854 150.169 146.721C150.507 147.588 150.845 148.282 151.014 149.149C151.182 150.016 151.182 150.883 151.182 151.577C151.182 152.444 151.014 153.138 150.845 154.005C150.676 154.872 150.338 155.739 150 156.433C149.662 157.3 149.155 157.994 148.649 158.687C148.142 159.381 147.466 160.075 146.791 160.595C146.115 161.115 145.27 161.462 144.257 161.809C143.412 162.156 142.23 162.329 141.216 162.329C140.034 162.329 138.851 162.156 138.007 161.809C136.993 161.462 136.149 161.115 135.473 160.595C134.797 160.075 134.122 159.555 133.615 158.861C133.108 158.167 132.601 157.473 132.264 156.606C131.926 155.739 131.757 155.045 131.588 154.178C131.25 153.311 131.25 152.444 131.25 151.577ZM135.642 151.23C135.642 151.924 135.642 152.444 135.811 153.138C135.811 153.831 135.98 154.525 136.149 155.219C136.318 155.913 136.655 156.433 136.824 157.127C137.162 157.647 137.5 158.167 137.838 158.687C138.176 159.208 138.682 159.555 139.358 159.728C139.865 160.075 140.541 160.075 141.216 160.075C141.892 160.075 142.399 159.901 142.905 159.728C143.412 159.555 143.919 159.208 144.257 158.861C144.595 158.514 144.932 157.994 145.27 157.473C145.608 156.953 145.777 156.433 145.946 155.739C146.115 155.219 146.284 154.525 146.284 153.831C146.284 153.138 146.453 152.617 146.453 151.924C146.453 150.536 146.284 149.322 146.115 148.282C145.946 147.241 145.608 146.201 145.101 145.333C144.595 144.466 144.088 143.946 143.412 143.426C142.736 142.905 141.892 142.732 140.878 142.732C140.203 142.732 139.527 142.905 139.02 143.079C138.514 143.252 138.007 143.599 137.669 144.119C137.331 144.466 136.993 144.987 136.655 145.507C136.318 146.027 136.149 146.547 135.98 147.241C135.811 147.935 135.642 148.455 135.642 149.149C135.811 150.016 135.642 150.536 135.642 151.23ZM140.541 139.263L139.527 137.876L142.736 134.407C142.905 134.234 143.243 134.06 143.412 133.887C143.75 133.714 143.919 133.714 144.257 133.714C144.426 133.714 144.595 133.714 144.764 133.887C144.932 133.887 145.101 134.06 145.27 134.234C145.439 134.407 145.439 134.581 145.608 134.754C145.608 134.928 145.777 135.101 145.777 135.274C145.777 135.621 145.608 135.968 145.439 136.315C145.27 136.662 144.932 136.835 144.595 137.009L140.541 139.263Z" fill="white"/>
<path d="M169.595 141.344L172.804 152.097C172.973 152.791 173.142 153.484 173.311 154.178C173.48 154.872 173.649 155.566 173.818 156.259C173.986 155.566 174.155 154.872 174.324 154.352C174.493 153.658 174.662 152.964 174.831 152.27L176.351 146.2C176.52 145.68 176.689 145.333 176.858 144.813C177.027 144.293 177.196 143.946 177.534 143.599L175.338 143.772V141.518H181.757V143.426C181.419 143.426 181.081 143.426 180.912 143.599C180.574 143.772 180.405 143.946 180.068 144.119C179.73 144.293 179.561 144.64 179.392 144.986C179.223 145.333 179.054 145.854 178.716 146.374L173.986 161.982H171.453L168.074 151.577C167.905 150.883 167.568 150.016 167.399 149.322C167.23 148.628 167.061 147.935 166.892 147.241C166.723 147.935 166.723 148.628 166.554 149.149C166.385 149.842 166.216 150.363 166.047 151.056L162.838 161.982H160.304L155.236 146.2C155.574 146.027 155.405 145.68 155.405 145.507C155.236 145.333 155.236 144.986 155.068 144.813C155.068 144.64 154.899 144.293 154.899 144.119C154.899 143.946 154.899 143.772 154.899 143.599H153.378V141.344H161.824V143.252H161.655C161.149 143.252 160.811 143.426 160.473 143.599C160.135 143.772 159.966 144.119 159.966 144.64C159.966 144.813 159.966 144.986 159.966 144.986C159.966 145.16 159.966 145.333 160.135 145.507L161.824 152.27C161.824 152.617 161.993 152.964 161.993 153.138C161.993 153.484 162.162 153.658 162.162 154.005C162.162 154.352 162.331 154.698 162.331 155.045C162.331 155.392 162.5 155.912 162.5 156.259C162.5 156.086 162.669 155.912 162.669 155.566C162.669 155.219 162.838 154.872 163.007 154.525C163.176 154.178 163.176 153.658 163.345 153.311C163.514 152.964 163.514 152.444 163.682 152.097C163.851 151.75 163.851 151.403 164.02 151.056C164.02 150.71 164.189 150.536 164.189 150.363L166.892 141.344H169.595Z" fill="white"/>
<path d="M190.878 150.189H192.905L195.101 146.374C195.27 146.027 195.439 145.853 195.608 145.507C195.777 145.16 195.946 144.986 196.115 144.639C196.284 144.293 196.453 144.119 196.622 143.946C196.791 143.772 196.959 143.599 197.128 143.425L195.27 143.599V141.344H202.196V143.252C201.858 143.252 201.52 143.252 201.182 143.425C200.845 143.425 200.507 143.599 200.169 143.772C199.831 143.946 199.493 144.293 198.987 144.639C198.649 144.986 198.142 145.507 197.804 146.2L195.101 150.709C195.439 150.883 195.777 151.23 196.115 151.403C196.453 151.75 196.622 151.923 196.959 152.27L199.831 156.433C200.169 156.779 200.338 157.3 200.676 157.647C201.014 157.993 201.351 158.34 201.689 158.687C202.027 159.034 202.365 159.207 202.703 159.381C203.041 159.554 203.378 159.728 203.716 159.728V161.635H199.324C199.155 161.635 198.987 161.462 198.818 161.289C198.649 161.115 198.311 160.768 198.142 160.595C197.804 160.248 197.635 159.901 197.297 159.554C196.959 159.207 196.791 158.861 196.622 158.687L193.75 154.525C193.581 154.351 193.412 154.178 193.412 154.005C193.243 153.831 193.074 153.658 192.905 153.484C192.737 153.311 192.568 153.137 192.399 152.964C192.23 152.791 192.061 152.617 192.061 152.617H191.047V156.953C191.047 157.3 191.047 157.473 191.047 157.82C191.047 157.993 191.047 158.34 191.047 158.514C191.047 158.687 191.047 159.034 191.047 159.207C191.047 159.381 191.047 159.554 191.047 159.728H193.243V161.982H185.135V160.075C185.473 160.075 185.811 160.075 185.98 159.901C186.149 159.728 186.487 159.728 186.655 159.554C186.824 159.381 186.993 159.207 186.993 158.861C187.162 158.514 187.162 157.993 187.162 157.473V146.2C187.162 145.853 187.162 145.68 187.162 145.333C187.162 144.986 187.162 144.813 187.162 144.639C187.162 144.466 187.162 144.119 187.162 143.946C187.162 143.772 187.162 143.599 187.162 143.425H184.966V141.171H193.074V143.079C192.737 143.079 192.399 143.079 192.23 143.252C192.061 143.252 191.723 143.425 191.554 143.599C191.385 143.772 191.216 143.946 191.216 144.293C191.047 144.639 191.047 145.16 191.047 145.68V150.189H190.878Z" fill="white"/>
<path d="M216.723 155.739L210.473 155.912L209.966 157.3C209.966 157.473 209.797 157.647 209.797 157.82C209.797 157.994 209.628 158.167 209.628 158.514C209.459 158.687 209.459 159.034 209.291 159.208C209.122 159.381 209.122 159.554 209.122 159.728L211.149 159.554V161.982H205.068V159.901C205.405 159.901 205.743 159.728 206.081 159.554C206.419 159.381 206.588 159.208 206.757 158.861C206.926 158.514 207.095 158.167 207.264 157.82C207.432 157.473 207.601 156.953 207.77 156.606L213.345 140.998H215.372L221.453 156.953C221.453 157.126 221.622 157.3 221.622 157.473C221.622 157.647 221.791 157.994 221.791 158.167C221.791 158.514 221.959 158.687 221.959 159.034C221.959 159.381 222.128 159.554 222.128 159.728H223.818V161.982H216.216V160.075C216.723 160.075 217.061 159.901 217.23 159.728C217.399 159.554 217.568 159.208 217.568 158.861C217.568 158.687 217.568 158.514 217.568 158.167C217.568 157.994 217.399 157.647 217.399 157.3L216.723 155.739ZM211.318 153.658H216.047L214.696 150.016C214.527 149.322 214.189 148.628 214.02 147.935C213.851 147.241 213.682 146.547 213.514 146.027C213.514 146.374 213.345 146.894 213.176 147.588C213.007 148.282 212.838 148.975 212.5 150.016L211.318 153.658Z" fill="white"/>
<path d="M121.115 212.624C121.115 210.543 118.412 208.635 117.905 208.288C117.23 207.941 115.709 207.074 113.514 206.901C112.838 206.901 112.162 206.901 111.486 207.074C109.966 207.421 108.953 207.768 106.081 209.675C103.209 211.583 102.027 212.624 101.858 213.491V213.664V215.399C101.858 215.745 102.027 216.092 102.365 216.439C102.703 216.786 103.209 216.959 104.054 216.959C105.236 216.959 106.757 216.613 108.108 216.439C109.291 216.266 110.304 215.919 110.98 216.092C112.669 216.092 114.02 216.613 115.034 217.133C115.878 217.48 116.554 217.827 117.399 217.827C118.074 217.827 118.75 217.653 119.426 217.133C120.439 216.439 121.115 215.572 121.115 214.705V212.624C121.115 212.797 121.115 212.797 121.115 212.624C120.946 212.797 121.115 212.797 121.115 212.624ZM106.25 209.849C108.953 207.941 110.135 207.594 111.486 207.247C112.162 207.074 112.838 207.074 113.345 207.074C115.541 207.074 117.061 208.115 117.736 208.461C118.243 208.808 120.777 210.543 120.946 212.624C120.946 212.797 120.946 212.971 120.946 213.144C120.946 213.317 120.946 213.317 120.946 213.491C120.946 213.664 120.777 213.838 120.777 213.838C120.777 213.838 120.777 214.011 120.608 214.011C120.439 214.185 120.439 214.358 120.27 214.531L120.101 214.705C119.932 214.878 119.595 215.052 119.426 215.225C118.75 215.745 118.074 215.919 117.399 215.919C116.723 215.919 115.878 215.572 115.203 215.225C114.358 214.878 113.514 214.531 112.331 214.358C111.993 214.358 111.487 214.185 111.149 214.185C110.473 214.185 109.459 214.358 108.277 214.531C107.264 214.705 106.081 215.052 105.237 215.052C104.899 215.052 104.561 215.052 104.392 215.052C103.716 215.052 103.209 214.878 102.872 214.531C102.703 214.358 102.534 214.185 102.534 214.011V213.838C102.534 213.664 102.534 213.491 102.534 213.491C102.196 212.797 103.378 211.757 106.25 209.849Z" fill="white"/>
<path d="M110.811 214.185C114.527 214.358 116.047 216.786 118.412 215.052C121.959 212.624 118.581 209.676 117.061 208.808C115.878 208.115 113.682 207.248 111.318 207.768C109.966 208.115 109.122 208.462 106.588 210.196C103.041 212.624 102.027 213.318 103.209 214.705C104.392 215.919 109.122 214.011 110.811 214.185ZM114.696 209.502C115.709 209.502 116.385 209.849 116.385 210.369C116.385 210.89 115.709 211.41 114.696 211.583C113.682 211.583 113.007 211.236 113.007 210.716C113.007 210.022 113.682 209.676 114.696 209.502Z" fill="white"/>
<path d="M109.122 184.008C110.304 183.488 111.486 182.967 112.669 182.1C113.007 182.274 113.514 182.447 114.02 182.62C115.034 183.834 116.554 184.008 117.905 183.314C118.074 183.314 118.074 183.141 117.905 183.141C117.061 181.927 115.203 180.713 113.851 182.1V182.274C113.514 182.274 113.007 182.1 112.669 181.927C114.189 180.886 115.372 179.499 116.554 177.938C116.892 178.111 117.399 177.938 117.568 177.938C119.257 178.458 121.115 177.591 122.128 176.03C122.128 175.857 122.128 175.857 121.959 175.857C120.27 175.51 118.412 176.204 117.399 177.764C117.061 177.764 116.723 177.764 116.554 177.764C116.723 177.591 116.723 177.418 116.892 177.244H117.061C117.061 177.244 117.061 177.244 117.061 177.071C117.737 176.03 118.243 175.163 118.581 174.122C119.932 173.082 120.439 171.001 119.764 169.44C119.764 169.44 119.595 169.266 119.595 169.44C118.75 170.827 118.243 172.215 118.412 173.949C118.074 174.816 117.568 175.683 117.061 176.55C117.061 176.377 117.061 176.204 117.061 176.03C117.737 175.683 117.736 174.296 117.736 173.776C117.736 173.255 117.737 171.694 117.061 171.521C116.385 171.348 116.216 172.908 116.216 173.255C116.216 174.296 116.385 175.163 116.892 176.03C116.892 176.377 116.892 176.724 117.061 176.897C116.554 177.591 116.047 178.285 115.541 178.978C115.203 179.499 114.696 179.846 114.358 180.192C114.358 179.846 114.358 179.672 114.358 179.325C115.203 178.805 115.541 177.764 115.541 176.897C115.541 176.55 115.709 174.643 115.034 174.469C114.527 174.296 113.851 175.857 113.682 176.377C113.345 177.418 113.345 178.458 113.851 179.325C113.851 179.499 114.02 179.499 114.02 179.499C114.02 179.846 114.02 180.019 114.189 180.366C112.669 181.753 110.98 182.794 109.122 184.008C108.953 183.834 109.122 184.008 109.122 184.008ZM114.02 178.978C113.682 177.764 113.851 176.204 114.696 175.163C115.203 174.643 115.034 175.163 115.034 175.683C115.034 176.204 115.034 176.55 115.034 177.071C115.034 177.764 114.696 178.632 114.189 179.152C114.189 178.285 114.358 177.591 114.696 176.724C114.696 176.55 114.527 176.55 114.527 176.724C114.189 177.244 114.02 178.111 114.02 178.978ZM116.554 173.949C116.554 173.429 116.385 172.735 116.723 172.215C116.723 171.868 117.061 171.868 117.399 172.041C117.399 172.215 117.568 172.388 117.568 172.562C117.568 172.908 117.736 173.082 117.736 173.429C117.736 173.949 117.736 175.163 117.399 175.683C117.399 174.99 117.399 174.469 117.568 173.776C117.568 173.602 117.399 173.602 117.399 173.776C117.23 174.296 117.23 174.816 117.23 175.336C116.723 174.816 116.554 174.296 116.554 173.949ZM119.426 171.694C119.257 172.215 119.088 172.908 118.75 173.429C118.75 172.041 119.088 170.827 119.764 169.787C120.101 171.174 119.764 172.735 118.919 173.776C119.257 173.082 119.426 172.388 119.426 171.694C119.595 171.694 119.426 171.694 119.426 171.694ZM120.101 176.724C119.595 177.071 119.088 177.418 118.581 177.591C118.581 177.591 118.412 177.591 118.074 177.591C119.088 176.377 120.439 175.857 121.959 176.03C121.115 177.071 119.932 177.764 118.581 177.764C119.257 177.591 119.764 177.244 120.27 176.724C120.439 176.897 120.27 176.724 120.101 176.724ZM114.358 182.62C115.034 182.62 115.709 182.62 116.216 182.274C116.385 182.274 116.216 182.1 116.047 182.1C115.372 182.274 114.865 182.447 114.189 182.274C115.372 181.233 116.892 182.1 117.568 183.141C116.554 183.661 115.203 183.488 114.358 182.62Z" fill="white"/>
<path d="M115.541 183.661C113.682 182.62 111.993 181.58 110.473 180.192C110.473 179.846 110.642 179.672 110.642 179.325C110.642 179.325 110.811 179.325 110.811 179.152C111.318 178.111 111.318 177.071 110.98 176.204C110.811 175.857 110.135 174.296 109.628 174.296C109.122 174.469 109.122 176.204 109.122 176.55C109.122 177.591 109.459 178.632 110.304 178.978C110.304 179.152 110.304 179.499 110.304 179.846C109.966 179.499 109.459 178.978 109.122 178.632C108.615 177.938 107.939 177.244 107.601 176.55C107.601 176.204 107.77 176.03 107.77 175.683C108.277 174.816 108.446 173.949 108.446 172.908C108.446 172.562 108.277 171.001 107.601 171.174C106.926 171.348 106.926 172.908 106.926 173.429C106.926 174.122 106.926 175.336 107.601 175.683C107.601 175.857 107.601 176.03 107.601 176.204C107.095 175.336 106.588 174.469 106.25 173.602C106.419 172.041 105.912 170.48 105.068 169.093H104.899C104.223 170.654 104.73 172.735 106.081 173.776C106.419 174.816 107.095 175.857 107.601 176.724C107.601 176.724 107.601 176.724 107.601 176.897C107.601 176.897 107.601 177.071 107.77 176.897C107.939 177.071 107.939 177.244 108.108 177.418C107.939 177.418 107.601 177.418 107.264 177.418C106.25 175.857 104.392 175.163 102.703 175.51C102.534 175.51 102.534 175.683 102.534 175.683C103.378 177.244 105.236 178.111 107.095 177.591C107.264 177.591 107.77 177.591 108.108 177.591C109.122 179.152 110.473 180.539 111.993 181.58C111.655 181.753 111.149 181.927 110.811 181.927C110.811 181.927 110.98 181.753 110.811 181.753C109.628 180.366 107.601 181.58 106.757 182.794C106.757 182.967 106.757 182.967 106.757 182.967C108.108 183.661 109.628 183.314 110.642 182.274C111.149 182.1 111.486 181.927 111.993 181.753C113.176 182.62 114.358 183.314 115.541 183.661C115.709 183.661 115.541 183.834 115.541 183.661ZM110.135 176.377C110.135 176.204 109.797 176.377 109.966 176.377C110.135 177.244 110.304 177.938 110.473 178.805C109.966 178.285 109.628 177.591 109.628 176.724C109.628 176.204 109.628 175.857 109.628 175.336C109.628 174.816 109.628 174.296 109.966 174.816C110.811 175.857 111.149 177.244 110.642 178.632C110.642 177.938 110.473 177.071 110.135 176.377ZM107.77 174.99C107.77 174.469 107.77 173.949 107.601 173.429C107.601 173.255 107.432 173.429 107.432 173.429C107.432 174.122 107.601 174.643 107.601 175.336C107.095 174.816 107.264 173.776 107.264 173.082C107.264 172.735 107.264 172.562 107.432 172.215C107.432 172.041 107.432 171.868 107.601 171.694C108.108 171.521 108.277 171.521 108.277 171.868C108.446 172.215 108.446 173.082 108.446 173.429C108.108 174.122 107.939 174.643 107.77 174.99ZM105.068 171.521C105.236 172.215 105.405 172.908 105.574 173.602C104.73 172.388 104.223 171.001 104.73 169.613C105.405 170.654 105.743 172.041 105.743 173.255C105.574 172.562 105.405 172.041 105.068 171.521C105.236 171.521 105.068 171.521 105.068 171.521ZM104.392 176.724C104.899 177.244 105.405 177.591 106.081 177.764C104.73 177.764 103.547 177.071 102.703 176.03C104.223 175.857 105.574 176.377 106.588 177.591C106.25 177.591 106.081 177.591 106.081 177.591C105.574 177.418 105.068 177.071 104.561 176.724C104.392 176.377 104.223 176.55 104.392 176.724ZM106.926 182.967C107.77 181.927 109.291 181.06 110.304 182.1C109.628 182.1 109.122 182.1 108.446 181.927C108.277 181.927 108.277 182.1 108.277 182.1C108.784 182.447 109.459 182.62 110.135 182.447C109.459 183.141 108.108 183.488 106.926 182.967Z" fill="white"/>
<path d="M77.1959 178.805H0.506757C0.337838 178.805 0 178.632 0 178.285C0 178.111 0.168919 177.764 0.506757 177.764H77.1959C77.3649 177.764 77.7027 177.938 77.7027 178.285C77.5338 178.632 77.3649 178.805 77.1959 178.805Z" fill="white"/>
<path d="M224.662 178.805H145.439C145.27 178.805 144.932 178.632 144.932 178.285C144.932 178.111 145.101 177.764 145.439 177.764H224.662C224.831 177.764 225.169 177.938 225.169 178.285C225 178.632 224.831 178.805 224.662 178.805Z" fill="white"/>
<path d="M77.196 194.934H38.6824C38.5135 194.934 38.1757 194.76 38.1757 194.414C38.1757 194.067 38.3446 193.893 38.6824 193.893H77.027C77.196 193.893 77.5338 194.067 77.5338 194.414C77.5338 194.76 77.3649 194.934 77.196 194.934Z" fill="white"/>
<path d="M184.797 194.934H145.439C145.27 194.934 144.932 194.76 144.932 194.414C144.932 194.067 145.101 193.893 145.439 193.893H184.797C184.966 193.893 185.304 194.067 185.304 194.414C185.304 194.76 185.135 194.934 184.797 194.934Z" fill="white"/>
<path d="M95.4392 211.93C95.2703 211.93 95.2703 211.93 95.1014 211.757C94.9324 211.583 94.9324 211.236 95.1014 211.063L128.885 176.377C129.054 176.204 129.392 176.204 129.561 176.377C129.73 176.551 129.73 176.897 129.561 177.071L95.777 211.757C95.6081 211.93 95.6081 211.93 95.4392 211.93Z" fill="white"/>
<path d="M129.054 211.93C128.885 211.93 128.885 211.93 128.716 211.757L94.9324 177.071C94.7635 176.897 94.7635 176.551 94.9324 176.377C95.1013 176.204 95.4392 176.204 95.6081 176.377L129.392 211.063C129.561 211.236 129.561 211.583 129.392 211.757C129.392 211.93 129.223 211.93 129.054 211.93Z" fill="white"/>
<path d="M89.696 194.414H86.9932C86.9932 194.587 86.9932 194.934 86.9932 195.107C86.9932 195.281 87.1622 195.454 87.1622 195.628C87.3311 195.801 87.3311 195.801 87.5 195.975C87.6689 195.975 87.8378 196.148 88.0068 196.148C88.0068 196.148 88.1757 196.148 88.3446 196.148C88.5135 196.148 88.5135 196.148 88.6824 195.975C88.8514 195.975 88.8514 195.801 89.0203 195.801C89.1892 195.801 89.1892 195.628 89.3581 195.454L89.696 195.801C89.527 195.975 89.3581 196.148 89.1892 196.321C89.0203 196.495 88.8514 196.495 88.6824 196.668C88.5135 196.668 88.3446 196.842 88.1757 196.842C88.0068 196.842 87.8378 196.842 87.6689 196.842C87.3311 196.842 87.1622 196.842 86.8243 196.668C86.6554 196.495 86.3176 196.495 86.1486 196.148C85.9797 195.975 85.8108 195.801 85.8108 195.454C85.6419 195.107 85.6419 194.934 85.6419 194.587C85.6419 194.24 85.6419 194.067 85.8108 193.72C85.9797 193.373 85.9797 193.2 86.1486 193.026C86.3176 192.853 86.4865 192.679 86.8243 192.506C86.9932 192.333 87.3311 192.333 87.6689 192.333C87.8378 192.333 88.0068 192.333 88.1757 192.333C88.3446 192.333 88.5135 192.333 88.6824 192.506C88.8514 192.506 89.0203 192.679 89.0203 192.679C89.1892 192.853 89.1892 192.853 89.3581 193.026C89.3581 193.2 89.527 193.373 89.527 193.547C89.696 193.893 89.696 194.067 89.696 194.414ZM87.8378 192.853C87.6689 192.853 87.6689 192.853 87.5 192.853C87.3311 192.853 87.3311 193.026 87.3311 193.026C87.3311 193.026 87.1622 193.2 87.1622 193.373C87.1622 193.547 87.1622 193.547 86.9932 193.72H88.5135C88.5135 193.547 88.5135 193.373 88.5135 193.373C88.5135 193.2 88.5135 193.2 88.3446 193.026L88.1757 192.853C88.0068 192.853 88.0068 192.853 87.8378 192.853Z" fill="white"/>
<path d="M91.2162 195.281C91.2162 195.454 91.2162 195.454 91.3851 195.628C91.3851 195.801 91.5541 195.801 91.723 195.975C91.8919 195.975 91.8919 196.148 92.0608 196.148C92.2297 196.148 92.3986 196.148 92.5676 196.148H92.7365H92.9054C92.9054 196.148 93.0743 196.148 93.0743 195.975V195.801V195.628L92.9054 195.454C92.9054 195.454 92.7365 195.281 92.5676 195.281C92.3986 195.281 92.3986 195.107 92.2297 195.107C92.0608 195.107 91.8919 194.934 91.723 194.934C91.5541 194.934 91.3851 194.761 91.2162 194.587C91.0473 194.414 91.0473 194.414 90.8784 194.24C90.7095 194.067 90.7095 193.893 90.7095 193.72C90.7095 193.547 90.7095 193.373 90.8784 193.2C90.8784 193.026 91.0473 192.853 91.2162 192.853C91.3851 192.679 91.5541 192.679 91.723 192.506C91.8919 192.506 92.0608 192.333 92.3986 192.333H92.5676C92.7365 192.333 92.7365 192.333 92.9054 192.333H93.0743C93.0743 192.333 93.2432 192.333 93.2432 192.506V192.333H93.9189V193.72H93.4122C93.4122 193.547 93.4122 193.373 93.2432 193.373C93.2432 193.2 93.0743 193.2 93.0743 193.026C92.9054 193.026 92.9054 192.853 92.7365 192.853C92.5676 192.853 92.3986 192.853 92.3986 192.853H92.2297H92.0608C92.0608 192.853 91.8919 192.853 91.8919 193.026V193.2C91.8919 193.373 91.8919 193.373 91.8919 193.373L92.0608 193.547C92.2297 193.547 92.2297 193.72 92.3986 193.72C92.5676 193.72 92.5676 193.72 92.7365 193.893C92.9054 193.893 93.0743 194.067 93.2432 194.067C93.4122 194.067 93.5811 194.24 93.75 194.414C93.9189 194.587 93.9189 194.587 94.0878 194.761C94.0878 194.934 94.2567 195.107 94.2567 195.281C94.2567 195.454 94.2567 195.628 94.0878 195.801C94.0878 195.975 93.9189 196.148 93.75 196.148C93.5811 196.321 93.4122 196.321 93.2432 196.321C93.0743 196.321 92.9054 196.321 92.7365 196.321C92.5676 196.321 92.5676 196.321 92.3986 196.321C92.2297 196.321 92.2297 196.321 92.0608 196.321C91.8919 196.321 91.8919 196.321 91.723 196.148C91.5541 196.148 91.5541 196.148 91.5541 195.975V196.148H90.8784V194.761H91.2162V195.281Z" fill="white"/>
<path d="M94.7635 192.506C94.9324 192.506 95.1014 192.506 95.1014 192.332C95.2703 192.332 95.2703 192.159 95.4392 192.159C95.6081 191.986 95.6081 191.986 95.6081 191.812C95.6081 191.639 95.777 191.639 95.777 191.465H96.4527V192.506H97.4662V193.2H96.4527C96.4527 193.546 96.4527 193.893 96.4527 194.24C96.4527 194.414 96.4527 194.76 96.4527 194.934C96.4527 195.107 96.4527 195.281 96.4527 195.281V195.454C96.4527 195.628 96.4527 195.628 96.4527 195.801C96.4527 195.975 96.4527 195.975 96.4527 195.975L96.6216 196.148H96.7905C96.7905 196.148 96.7905 196.148 96.9595 196.148H97.1284C97.1284 196.148 97.2973 196.148 97.2973 195.975C97.2973 195.975 97.4662 195.801 97.4662 195.628L97.8041 195.975C97.6351 196.148 97.4662 196.321 97.2973 196.495C97.1284 196.668 96.9595 196.668 96.9595 196.842C96.7905 196.842 96.6216 197.015 96.6216 197.015C96.4527 197.015 96.4527 197.015 96.2838 197.015C96.1149 197.015 96.1149 197.015 95.9459 197.015C95.777 197.015 95.777 197.015 95.6081 197.015C95.4392 197.015 95.4392 196.842 95.2703 196.842C95.2703 196.842 95.1014 196.668 95.1014 196.495C95.1014 196.321 94.9324 196.321 94.9324 196.148C94.9324 195.974 94.9324 195.801 94.9324 195.628V193.72H94.4257V192.506H94.7635Z" fill="white"/>
<path d="M99.8311 196.148C99.8311 196.321 99.8311 196.321 99.8311 196.321C99.8311 196.321 99.8311 196.495 99.6622 196.495L99.4932 196.668H99.3243C99.1554 196.668 99.1554 196.668 99.1554 196.668C99.1554 196.668 98.9865 196.668 98.9865 196.495L98.8176 196.321V196.148C98.8176 195.975 98.8176 195.975 98.8176 195.975C98.8176 195.975 98.8176 195.801 98.9865 195.801L99.1554 195.628H99.3243H99.4932C99.4932 195.628 99.6622 195.628 99.6622 195.801C99.6622 195.975 99.8311 195.975 99.8311 195.975C99.8311 195.975 99.8311 195.975 99.8311 196.148Z" fill="white"/>
<path d="M121.622 192.853L121.284 192.332L123.142 190.945H123.649V195.454V195.628V195.801V195.974V196.148H124.324V196.842H121.959V196.321C122.128 196.321 122.128 196.321 122.128 196.321C122.128 196.321 122.297 196.321 122.297 196.148C122.297 196.148 122.297 195.974 122.466 195.974C122.466 195.801 122.466 195.801 122.466 195.628V192.332L121.622 192.853Z" fill="white"/>
<path d="M125.507 195.975V195.801C125.507 195.801 125.507 195.628 125.676 195.628L125.845 195.454H126.014C126.182 195.454 126.182 195.454 126.182 195.454C126.182 195.454 126.351 195.454 126.351 195.628V195.801V195.975C126.351 195.975 126.351 195.975 126.351 196.148C126.351 196.148 126.351 196.148 126.351 196.322L126.52 196.495C126.52 196.495 126.689 196.495 126.858 196.495C127.027 196.495 127.196 196.495 127.365 196.322C127.534 196.148 127.534 196.148 127.703 195.975C127.872 195.801 127.872 195.628 127.872 195.281C127.872 195.108 127.872 194.761 127.872 194.587V194.414C127.872 194.414 127.872 194.414 127.872 194.24L127.703 194.414C127.703 194.414 127.534 194.587 127.365 194.587C127.196 194.587 127.196 194.587 127.027 194.761C126.858 194.761 126.858 194.761 126.689 194.761C126.351 194.761 126.182 194.761 126.014 194.587C125.845 194.414 125.676 194.414 125.507 194.24C125.338 194.067 125.338 193.894 125.169 193.547C125.169 193.373 125 193.026 125 192.853C125 192.506 125 192.333 125.169 192.159C125.338 191.986 125.338 191.812 125.507 191.639C125.676 191.466 125.845 191.292 126.182 191.292C126.351 191.119 126.689 191.119 127.027 191.119C127.365 191.119 127.703 191.119 127.872 191.292C128.041 191.466 128.378 191.639 128.547 191.812C128.716 191.986 128.885 192.333 128.885 192.68C128.885 193.026 129.054 193.373 129.054 193.72C129.054 193.894 129.054 194.067 129.054 194.414C129.054 194.587 129.054 194.934 128.885 195.108C128.885 195.281 128.716 195.628 128.716 195.801C128.547 195.975 128.547 196.148 128.378 196.322C128.209 196.495 128.041 196.668 127.703 196.668C127.534 196.842 127.196 196.842 126.858 196.842C126.52 196.842 126.351 196.842 126.182 196.668C126.014 196.668 125.845 196.495 125.676 196.495C125.507 196.322 125.507 196.322 125.338 196.148C125.507 196.322 125.507 196.148 125.507 195.975ZM127.196 194.24C127.365 194.24 127.365 194.24 127.365 194.24C127.365 194.24 127.534 194.24 127.534 194.067L127.703 193.894L127.872 193.72C127.872 193.373 127.872 193.2 127.872 193.026C127.872 192.853 127.872 192.506 127.703 192.333C127.703 192.159 127.534 191.986 127.534 191.812C127.365 191.639 127.365 191.639 127.196 191.639C127.027 191.639 127.027 191.639 126.858 191.812C126.689 191.812 126.689 191.986 126.689 191.986C126.689 192.159 126.52 192.159 126.52 192.333C126.52 192.506 126.52 192.68 126.52 192.68C126.52 192.68 126.52 192.853 126.52 193.026C126.52 193.2 126.52 193.2 126.52 193.373C126.52 193.547 126.52 193.547 126.52 193.72C126.52 193.894 126.52 193.894 126.689 194.067L126.858 194.24C127.027 194.24 127.196 194.24 127.196 194.24Z" fill="white"/>
<path d="M133.953 192.506C133.953 192.679 133.953 192.853 133.784 192.853C133.784 193.026 133.615 193.026 133.615 193.2C133.446 193.373 133.446 193.373 133.277 193.546C133.108 193.72 133.108 193.72 132.939 193.72C133.277 193.893 133.615 194.24 133.784 194.587C133.953 194.934 134.122 195.107 134.122 195.454C134.122 195.801 134.122 195.974 133.953 196.148C133.784 196.321 133.615 196.495 133.446 196.668C133.277 196.842 133.108 196.842 132.77 197.015C132.601 197.015 132.264 197.188 132.095 197.188C131.926 197.188 131.757 197.188 131.757 197.188C131.588 197.188 131.419 197.188 131.419 197.015C131.25 197.015 131.081 196.842 131.081 196.842C130.912 196.842 130.912 196.668 130.743 196.495C130.574 196.321 130.574 196.321 130.574 196.148C130.574 195.974 130.574 195.801 130.574 195.628C130.574 195.454 130.574 195.281 130.743 195.107C130.743 194.934 130.912 194.76 130.912 194.76C131.081 194.587 131.081 194.587 131.25 194.414C131.419 194.24 131.588 194.24 131.588 194.067C131.419 193.893 131.25 193.893 131.081 193.72C130.912 193.546 130.912 193.546 130.743 193.373C130.743 193.2 130.574 193.2 130.574 193.026C130.574 192.853 130.574 192.853 130.574 192.679C130.574 192.332 130.574 192.159 130.743 191.986C130.912 191.812 131.081 191.639 131.25 191.465C131.419 191.292 131.588 191.292 131.757 191.118C131.926 191.118 132.264 190.945 132.432 190.945C132.601 190.945 132.77 190.945 133.108 191.118C133.277 191.118 133.446 191.292 133.615 191.465C133.784 191.639 133.953 191.812 133.953 191.986C133.953 191.986 133.953 192.159 133.953 192.506ZM133.108 195.801C133.108 195.628 133.108 195.628 133.108 195.454C133.108 195.281 132.939 195.281 132.939 195.107C132.939 194.934 132.77 194.934 132.601 194.76C132.432 194.587 132.264 194.587 132.095 194.414C131.926 194.587 131.926 194.587 131.757 194.76C131.757 194.934 131.588 194.934 131.588 195.107C131.588 195.281 131.419 195.281 131.419 195.454C131.419 195.628 131.419 195.628 131.419 195.801C131.419 195.974 131.419 195.974 131.419 196.148C131.419 196.321 131.588 196.321 131.588 196.495C131.588 196.495 131.757 196.668 131.926 196.668C132.095 196.668 132.095 196.668 132.264 196.668C132.432 196.668 132.432 196.668 132.601 196.668C132.77 196.668 132.77 196.495 132.77 196.495L132.939 196.321C133.108 195.974 133.108 195.801 133.108 195.801ZM131.588 192.332C131.588 192.506 131.588 192.506 131.588 192.679C131.588 192.853 131.757 192.853 131.757 193.026C131.757 193.2 131.926 193.2 132.095 193.373C132.264 193.373 132.264 193.546 132.432 193.546C132.601 193.546 132.601 193.373 132.601 193.373C132.601 193.373 132.77 193.2 132.77 193.026C132.77 192.853 132.939 192.853 132.939 192.679C132.939 192.506 132.939 192.506 132.939 192.506C132.939 192.332 132.939 192.332 132.939 192.159C132.939 191.986 132.77 191.986 132.77 191.986L132.601 191.812C132.432 191.812 132.432 191.812 132.264 191.812C132.095 191.812 132.095 191.812 131.926 191.812C131.757 191.812 131.757 191.986 131.757 191.986L131.588 192.159C131.757 192.159 131.588 192.332 131.588 192.332Z" fill="white"/>
<path d="M138.345 195.454C138.345 195.628 138.345 195.801 138.345 195.801V195.975V196.148V196.321H139.02V197.015H136.655V196.495C136.824 196.495 136.824 196.495 136.824 196.495C136.824 196.495 136.993 196.495 136.993 196.321L137.162 196.148C137.162 195.975 137.162 195.975 137.162 195.801V195.628H135.135V194.934L137.838 191.292H138.345V194.934H139.189V195.628H138.345V195.454ZM135.811 194.761H137.162V193.026L135.811 194.761Z" fill="white"/>
<path d="M164.189 91.9173L112.5 122.614L60.8108 91.9173V30.6969L112.5 0L164.189 30.6969V91.9173Z" fill="#D71016"/>
<path d="M154.223 92.0907L153.378 90.3564L157.601 87.9284V82.8989H159.291V88.9689L154.223 92.0907Z" fill="white"/>
<path d="M125 109.433L124.155 107.873L131.419 103.537L132.264 105.098L125 109.433ZM139.527 100.762L138.682 99.2012L145.946 94.8655L146.791 96.4263L139.527 100.762Z" fill="white"/>
<path d="M112.5 116.717L107.432 113.769L108.277 112.208L112.5 114.636L116.723 112.208L117.568 113.769L112.5 116.717Z" fill="white"/>
<path d="M100.169 109.433L92.9054 105.098L93.75 103.537L101.014 107.873L100.169 109.433ZM85.473 100.762L78.2095 96.4263L79.0541 94.8655L86.3176 99.2012L85.473 100.762Z" fill="white"/>
<path d="M70.777 92.0907L65.7095 88.9689V82.8989H67.5676V87.9284L71.7905 90.3564L70.777 92.0907Z" fill="white"/>
<path d="M67.5676 74.2277H65.7095V65.5563H67.5676V74.2277ZM67.5676 56.8848H65.7095V48.2134H67.5676V56.8848Z" fill="white"/>
<path d="M67.5676 39.5417H65.7095V33.4717L70.777 30.5234L71.7905 32.0843L67.5676 34.6857V39.5417Z" fill="white"/>
<path d="M79.0541 27.7484L78.2095 26.1876L85.473 21.8519L86.3176 23.4127L79.0541 27.7484ZM93.75 19.077L92.9054 17.5161L100.169 13.1804L101.014 14.7413L93.75 19.077Z" fill="white"/>
<path d="M145.946 27.7484L138.682 23.4127L139.527 21.8519L146.791 26.1876L145.946 27.7484ZM131.419 19.077L124.155 14.7413L125 13.1804L132.264 17.5161L131.419 19.077Z" fill="white"/>
<path d="M159.291 39.5417H157.601V34.6857L153.378 32.0843L154.223 30.5234L159.291 33.4717V39.5417Z" fill="white"/>
<path d="M159.291 74.2277H157.432V65.5563H159.291V74.2277ZM159.291 56.8848H157.432V48.2134H159.291V56.8848Z" fill="white"/>
<path d="M133.615 58.0988C135.98 56.5379 138.682 52.3756 138.682 52.3756C138.682 52.3756 140.034 50.4679 139.865 44.7448C139.865 44.7448 139.696 41.2762 139.358 44.051C139.02 46.8259 139.189 48.907 138.007 50.6413C136.824 52.3756 135.642 53.5896 135.642 53.5896L133.108 56.0176C133.108 56.0176 131.926 57.2316 132.601 55.6708C133.277 54.1099 134.797 51.6819 135.304 49.4273C135.98 46.9993 136.318 46.3056 136.318 46.1322C136.318 45.9588 137.669 41.7965 138.682 40.5825C138.682 40.5825 140.203 39.0216 139.696 35.553C139.696 35.553 139.02 32.9516 138.682 32.6047C138.345 32.2579 137.669 30.8705 138.176 33.125C138.682 35.553 138.682 37.1139 138.176 38.1545C137.669 39.195 137.162 39.8887 137.162 39.8887C137.162 39.8887 136.149 41.623 134.797 40.0622C134.797 40.0622 133.615 36.4202 132.095 34.5125C130.574 32.7782 130.236 30.697 130.236 30.697C130.236 30.697 129.561 29.8299 130.068 31.5642C130.405 33.125 131.081 34.5125 131.081 34.5125C131.081 34.5125 131.588 35.7265 131.588 36.0733C131.588 36.4202 132.095 37.4607 132.095 37.4607C132.095 37.4607 133.277 39.0216 132.601 41.1028C132.601 41.1028 132.432 42.4902 132.264 42.6636C132.095 42.837 131.25 43.3573 130.743 43.5308C130.236 43.5308 128.378 44.051 128.209 44.2245C128.041 44.3979 126.351 44.2245 126.182 44.2245C126.014 44.051 123.142 44.051 122.128 43.1839C121.115 42.4902 120.439 41.9699 120.439 41.9699C120.439 41.9699 119.257 41.7965 120.439 42.6636C121.622 43.5308 122.297 44.2245 122.297 44.2245C122.297 44.2245 123.48 44.7448 124.493 44.9182C125.507 45.0916 126.351 45.265 126.351 45.265C126.351 45.265 127.196 45.265 127.703 45.7853C128.209 46.3056 129.392 46.1322 129.392 46.1322L131.926 45.7853C131.926 45.7853 133.108 44.9182 132.939 46.6525C132.77 48.3868 132.095 49.9476 132.095 49.9476L130.405 53.7631L129.223 55.4973L129.054 54.2833C129.054 54.2833 129.054 52.7225 128.547 54.4568C128.041 56.3645 128.041 57.2316 128.041 57.2316C128.041 57.2316 123.649 62.2611 122.973 62.7814C122.466 63.3016 119.932 65.7296 119.932 65.7296L118.412 67.1171L117.736 67.8108L117.061 68.6779C117.061 68.6779 116.554 68.6779 116.385 68.5045C116.216 68.3311 113.682 69.0248 113.007 69.5451C112.331 70.0654 111.824 69.0248 111.824 69.0248C111.824 69.0248 110.642 68.8514 110.473 68.8514C110.304 68.8514 108.615 68.6779 108.615 68.6779L107.601 67.6374C107.601 67.6374 104.73 65.5562 104.223 64.8625C103.716 64.3422 100 61.7408 100 61.7408L99.8311 57.7519C99.8311 57.7519 99.3243 55.8442 98.9865 57.7519C98.6486 59.6596 98.8176 60.8736 98.8176 60.8736C98.8176 60.8736 93.2432 56.8848 92.3986 55.6708C91.5541 54.4568 89.0203 50.4679 88.8513 49.2539C88.6824 48.0399 88.5135 46.6525 88.5135 46.6525C88.5135 46.6525 88.3446 45.7853 89.3581 46.3056C90.2027 46.6525 92.3986 46.6525 92.3986 46.6525C92.3986 46.6525 93.75 46.479 94.0878 46.3056C94.4257 46.1322 95.2703 45.9588 95.6081 46.1322C95.9459 46.1322 95.9459 45.7853 95.777 45.6119C95.6081 45.4385 95.2703 45.265 95.2703 45.0916C95.2703 44.9182 95.777 44.5713 96.4527 44.2245C97.1284 44.051 98.9865 42.837 98.9865 42.837L101.014 40.7559L101.52 39.8887C101.52 39.8887 102.196 38.3279 100.676 39.8887C99.3243 41.4496 97.973 42.1433 97.8041 42.1433C97.6351 42.1433 94.4257 43.3573 94.0878 43.5308C93.75 43.7042 90.2027 43.8776 89.527 43.5308C88.6824 43.1839 88.1757 41.9699 88.6824 40.2356C89.1892 38.5013 89.8649 36.0733 89.8649 36.0733L91.2162 33.4719C91.2162 33.4719 92.5676 30.8705 92.5676 30.697C92.5676 30.5236 93.4122 28.7893 92.9054 28.7893C92.9054 28.7893 91.8919 30.697 91.723 30.8705C91.5541 30.8705 90.5405 32.6047 90.5405 32.6047C90.5405 32.6047 88.6824 35.2062 88.3446 35.553C88.0068 35.8999 87.8378 37.1139 86.9932 37.4607C86.1486 37.6342 85.1351 37.4607 84.7973 36.0733C84.6284 34.6859 84.4595 32.7782 84.9662 32.0845C85.473 31.3907 85.6419 30.697 85.6419 30.697C85.6419 30.697 85.473 30.0033 84.7973 31.0439C84.2905 32.0845 83.7838 33.125 83.6149 33.4719C83.4459 33.6453 83.277 35.2062 83.277 35.3796C83.277 35.553 84.1216 38.1545 84.4595 38.8482C84.7973 39.5419 85.3041 40.5825 84.9662 42.4902C84.7973 44.2245 84.4595 46.3056 84.4595 46.3056C84.4595 46.3056 84.2905 53.2428 86.9932 55.4973L88.0068 56.7113C88.0068 56.7113 88.0068 59.8331 88.3446 60.5268C88.6824 61.2205 89.1892 64.6891 94.2568 66.7702C94.2568 66.7702 96.7905 67.2905 99.3243 67.1171C99.3243 67.1171 100.338 69.3716 102.027 69.7185C103.716 69.8919 104.561 70.2388 104.561 70.2388H105.068C105.068 70.2388 105.236 70.4122 105.236 70.7591C105.236 70.9325 105.236 71.4528 105.236 71.4528C105.068 71.6262 105.236 72.3199 105.236 72.3199L105.068 72.8402C105.068 72.8402 104.899 73.0136 104.73 72.8402C104.561 72.6668 103.041 71.7996 102.703 71.6262C102.365 71.4528 97.8041 69.1982 97.8041 69.1982C97.8041 69.1982 93.9189 68.3311 93.0743 67.2905C93.0743 67.2905 92.0608 66.9436 91.8919 67.4639C91.723 67.8108 91.723 68.8514 91.8919 69.0248C92.0608 69.1982 92.9054 71.2794 92.9054 71.2794C92.9054 71.2794 94.5946 74.9214 96.2838 75.9619C97.973 77.0025 99.6622 78.2165 100.676 78.2165C101.52 78.0431 104.392 79.2571 104.899 79.6039C105.236 79.9508 105.743 80.6445 105.743 80.9914V82.2054C105.743 82.3788 105.743 83.7662 105.743 84.1131C105.743 84.4599 105.912 85.5005 105.574 86.5411C105.236 87.5817 104.899 88.9691 104.899 88.9691C104.899 88.9691 104.392 91.2237 104.392 91.3971C104.392 91.744 104.054 93.8251 104.054 93.8251C104.054 93.8251 112.5 102.67 122.973 93.9985C122.973 93.9985 122.128 90.0097 121.959 89.4894C121.791 88.9691 120.946 86.1942 120.777 85.8474C120.608 85.5005 120.608 82.7257 120.608 82.7257L120.777 81.5117C120.777 81.5117 121.115 81.1648 121.115 80.8179C121.115 80.4711 121.284 79.9508 121.284 79.9508C121.284 79.9508 123.48 79.0837 124.662 79.2571C125.845 79.4305 127.872 78.3899 128.378 78.0431C129.054 77.6962 131.081 75.4417 131.25 75.2682C131.419 74.9214 133.446 73.0136 133.446 73.0136C133.446 73.0136 134.122 71.9731 134.122 71.7997C134.291 71.4528 134.797 70.4122 134.797 70.4122C134.797 70.4122 135.135 69.5451 133.953 69.3716C132.939 69.1982 132.264 69.8919 132.264 69.8919C132.264 69.8919 130.236 70.4122 129.223 70.4122C128.209 70.2388 124.324 72.3199 123.649 72.6668C122.973 73.0137 122.297 73.5339 121.959 73.5339C121.622 73.5339 120.439 73.7074 120.439 73.3605C120.608 73.0136 120.608 72.6668 120.439 72.3199C120.27 71.9731 119.932 71.6262 119.932 71.6262C120.101 71.1059 120.946 70.0654 120.946 70.0654C120.946 70.0654 124.324 69.3716 125.676 67.8108C125.676 67.8108 132.095 67.8108 133.953 66.2499C133.953 66.2499 137.331 64.5156 137.838 59.4862C137.838 59.4862 138.007 57.7519 137.669 57.4051C137.331 57.0582 137.331 57.2316 137.162 57.7519C136.993 58.2722 137.162 60.7002 135.135 62.7814C133.108 64.6891 132.432 65.2094 127.872 65.3828C127.872 65.3828 128.885 64.1688 129.054 62.0876C129.054 61.5673 131.081 59.6596 133.615 58.0988ZM91.0473 62.0876C89.3581 60.3533 88.8513 57.2316 88.8513 57.2316C89.1892 57.0582 90.5405 58.4456 90.7095 58.4456C90.8784 58.4456 96.7905 63.1282 97.4662 63.4751C98.3108 63.8219 98.4797 64.5156 98.4797 64.5156C94.2568 64.8625 92.9054 63.8219 91.0473 62.0876Z" fill="white"/>
</svg>
