<svg width="31" height="21" viewBox="0 0 31 21" fill="none" xmlns="http://www.w3.org/2000/svg">
<path d="M29.6119 3.29055C29.2748 2.03726 28.2866 1.0493 27.0335 0.711828C24.7443 0.0854492 15.5869 0.0854492 15.5869 0.0854492C15.5869 0.0854492 6.43 0.0854492 4.14072 0.68808C2.91171 1.0252 1.89947 2.03744 1.56235 3.29055C0.9599 5.57965 0.9599 10.327 0.9599 10.327C0.9599 10.327 0.9599 15.0982 1.56235 17.3634C1.89982 18.6165 2.8876 19.6044 4.1409 19.9419C6.4541 20.5685 15.5873 20.5685 15.5873 20.5685C15.5873 20.5685 24.7443 20.5685 27.0335 19.9658C28.2868 19.6285 29.2748 18.6406 29.6123 17.3875C30.2145 15.0982 30.2145 10.3511 30.2145 10.3511C30.2145 10.3511 30.2386 5.57965 29.6119 3.29055ZM12.6715 14.7127V5.94123L20.2862 10.327L12.6715 14.7127Z" fill="white"/>
</svg>
